<svg xmlns="http://www.w3.org/2000/svg" viewBox="0 0 100 100">
  <defs>
    <clipPath id="circle"><circle cx="50" cy="50" r="48"/></clipPath>
  </defs>
  <circle cx="50" cy="50" r="48" fill="transparent"/>
  <!-- Body / shirt -->
  <path d="M20 100 Q20 75 50 72 Q80 75 80 100Z" fill="#6358cc"/>
  <!-- Neck -->
  <rect x="44" y="66" width="12" height="10" rx="4" fill="#C68642"/>
  <!-- Head -->
  <ellipse cx="50" cy="50" rx="22" ry="24" fill="#C68642"/>
  <!-- Hair -->
  <path d="M28 50 Q50 16 72 50 Q72 30 70 46 Q50 16 30 46 Q28 30 28 50Z" fill="#FFD700"/>
  <path d="M28 46 Q50 28 72 46 L72 50 Q50 34 28 50Z" fill="#6358cc" opacity="0.9"/>
  <!-- Eyes -->
  <circle cx="43" cy="52" r="2.5" fill="#1A1A1A"/>
  <circle cx="57" cy="52" r="2.5" fill="#1A1A1A"/>
  <circle cx="44" cy="51" r="0.8" fill="white"/>
  <circle cx="58" cy="51" r="0.8" fill="white"/>
  <!-- Eyebrows -->
  <path d="M40 47 Q43 45 46 47" fill="none" stroke="#FFD700" stroke-width="1.5" stroke-linecap="round"/>
  <path d="M54 47 Q57 45 60 47" fill="none" stroke="#FFD700" stroke-width="1.5" stroke-linecap="round"/>
  <!-- Nose -->
  <path d="M49 55 Q50 58 51 55" fill="none" stroke="#C68642" stroke-width="1" opacity="0.6"/>
  <!-- Mouth (smile) -->
  <path d="M45 63 Q50 67 55 63" fill="none" stroke="#C0392B" stroke-width="1.5" stroke-linecap="round"/>
  <!-- Ears -->
  <ellipse cx="28" cy="51" rx="3" ry="4" fill="#C68642"/>
  <ellipse cx="72" cy="51" rx="3" ry="4" fill="#C68642"/>
  <!-- Pants -->
  <path d="M30 100 Q30 85 50 83 Q70 85 70 100Z" fill="#2C3E50" opacity="0.4"/>
  <!-- Accessory -->
  <rect x="38" y="54" width="10" height="6" rx="2" fill="none" stroke="#333" stroke-width="1.5"/>
<rect x="52" y="54" width="10" height="6" rx="2" fill="none" stroke="#333" stroke-width="1.5"/>
<line x1="48" y1="57" x2="52" y2="57" stroke="#333" stroke-width="1.5"/>
</svg>