<svg xmlns="http://www.w3.org/2000/svg" viewBox="0 0 100 100">
  <defs>
    <clipPath id="circle"><circle cx="50" cy="50" r="48"/></clipPath>
  </defs>
  <circle cx="50" cy="50" r="48" fill="transparent"/>
  <!-- Body / shirt -->
  <path d="M20 100 Q20 75 50 72 Q80 75 80 100Z" fill="#0D3B66"/>
  <!-- Neck -->
  <rect x="44" y="66" width="12" height="10" rx="4" fill="#8D5524"/>
  <!-- Head -->
  <ellipse cx="50" cy="50" rx="22" ry="24" fill="#8D5524"/>
  <!-- Hair -->
  <path d="M30 45 Q50 18 70 45 Q65 20 50 18 Q35 18 30 45Z" fill="#2C1503"/>
  
  <!-- Eyes -->
  <circle cx="43" cy="52" r="2.5" fill="#1A1A1A"/>
  <circle cx="57" cy="52" r="2.5" fill="#1A1A1A"/>
  <circle cx="44" cy="51" r="0.8" fill="white"/>
  <circle cx="58" cy="51" r="0.8" fill="white"/>
  <!-- Eyebrows -->
  <path d="M40 47 Q43 45 46 47" fill="none" stroke="#2C1503" stroke-width="1.5" stroke-linecap="round"/>
  <path d="M54 47 Q57 45 60 47" fill="none" stroke="#2C1503" stroke-width="1.5" stroke-linecap="round"/>
  <!-- Nose -->
  <path d="M49 55 Q50 58 51 55" fill="none" stroke="#8D5524" stroke-width="1" opacity="0.6"/>
  <!-- Mouth (smile) -->
  <path d="M45 63 Q50 67 55 63" fill="none" stroke="#C0392B" stroke-width="1.5" stroke-linecap="round"/>
  <!-- Ears -->
  <ellipse cx="28" cy="51" rx="3" ry="4" fill="#8D5524"/>
  <ellipse cx="72" cy="51" rx="3" ry="4" fill="#8D5524"/>
  <!-- Pants -->
  <path d="M30 100 Q30 85 50 83 Q70 85 70 100Z" fill="#1a1a2e" opacity="0.4"/>
  <!-- Accessory -->
  
</svg>